<svg width="172" height="104" viewBox="0 0 172 104" fill="none" xmlns="http://www.w3.org/2000/svg">
<path d="M84.17 8.49V5L88.44 2.57V0L64 14.24V37.57L72 42.17V20.06L76.26 17.63V29L84.26 24.4V13.08L88.53 10.65V8.08L66 21.17V15.34L70 13.06V16.71L72 15.56V11.93L76.23 9.5V13.08L78.23 11.93V8.37L82.23 6.08V9.59L84.16 8.49H84.17ZM82.17 23.31L78.17 25.62V16.52L82.17 14.24V23.31ZM69.91 21.21V38.77L65.91 36.46V23.52L69.91 21.21Z" fill="#1F3A93"/>
<path d="M76.2695 43.28L84.0595 47.77V34.44L76.2695 29.94V43.28ZM78.1995 33.28L82.1995 35.54V44.4L78.1995 42.14V33.28Z" fill="#1F3A93"/>
<path d="M88.2398 42V45.41L84.0898 47.76V50.28L108 36.36V13.52L100.23 9V30.63L96.0598 33V21.87L88.2398 26.39V37.49L84.0898 39.84V42.35L106.09 29.55V35.25L102.15 37.49V33.91L100.21 35V38.55L96.0598 41V37.46L94.1199 38.59V42.08L90.1798 44.31V40.88L88.2398 42ZM90.1798 27.5L94.1199 25.24V34.14L90.1798 36.38V27.5ZM102.18 29.55V12.36L106.18 14.63V27.29L102.18 29.55Z" fill="#1F3A93"/>
<path d="M96.4004 7.19L88.4004 2.57V16.19L96.4004 20.79V7.19ZM94.4004 17.37L90.4004 15.06V6L94.4004 8.31V17.37Z" fill="#1F3A93"/>
<path d="M95.5918 68.3641C95.4381 69.2707 95.1692 70.1005 94.7851 70.8535C94.4163 71.5911 93.9476 72.2288 93.379 72.7666C92.8258 73.2891 92.1804 73.6886 91.4428 73.9652C90.7206 74.2572 89.9215 74.4032 89.0456 74.4032C88.0468 74.4032 87.1171 74.2265 86.2566 73.873C85.4114 73.5196 84.6738 72.9971 84.0438 72.3056C83.4291 71.5988 82.9374 70.7229 82.5686 69.6779C82.2151 68.633 82.0384 67.4267 82.0384 66.0591C82.0384 64.7068 82.1998 63.5005 82.5225 62.4402C82.8605 61.3646 83.3369 60.4503 83.9516 59.6973C84.5662 58.9443 85.3038 58.3681 86.1644 57.9685C87.0403 57.569 88.016 57.3692 89.0917 57.3692C90.0444 57.3692 90.905 57.5229 91.6733 57.8302C92.4416 58.1222 93.1024 58.5294 93.6556 59.0519C94.2088 59.559 94.6468 60.166 94.9695 60.8728C95.3075 61.5797 95.515 62.3327 95.5918 63.1317H93.7939C93.7017 62.5171 93.5173 61.9562 93.2407 61.4491C92.9795 60.9266 92.6414 60.481 92.2265 60.1122C91.827 59.7434 91.3583 59.4591 90.8205 59.2593C90.298 59.0442 89.7294 58.9366 89.1148 58.9366C87.3937 58.9366 86.0875 59.5513 85.1963 60.7806C84.305 61.9946 83.8594 63.7234 83.8594 65.9669C83.8594 67.104 83.9823 68.1029 84.2282 68.9634C84.474 69.8086 84.8198 70.5231 85.2654 71.107C85.711 71.6756 86.2489 72.1059 86.8789 72.3978C87.5243 72.6898 88.2312 72.8358 88.9995 72.8358C90.2903 72.8358 91.3429 72.4516 92.1574 71.6833C92.9718 70.8996 93.5173 69.7932 93.7939 68.3641H95.5918ZM108.42 73.85L106.968 69.9545H99.3617L97.8404 73.85H95.9503L102.197 57.8994H104.202L110.38 73.85H108.42ZM103.188 59.9278L99.8688 68.4563H106.438L103.188 59.9278ZM112.221 73.85V57.8994H118.975C119.712 57.8994 120.373 58.03 120.957 58.2912C121.556 58.5525 122.063 58.9136 122.478 59.3746C122.908 59.8356 123.231 60.3811 123.446 61.0111C123.677 61.6258 123.792 62.2866 123.792 62.9934C123.792 63.7157 123.677 64.3764 123.446 64.9757C123.231 65.575 122.908 66.0898 122.478 66.5201C122.063 66.9504 121.556 67.2884 120.957 67.5343C120.373 67.7648 119.712 67.88 118.975 67.88H114.019V73.85H112.221ZM118.721 66.4279C119.29 66.4279 119.789 66.3434 120.219 66.1743C120.665 65.9899 121.034 65.7441 121.326 65.4367C121.618 65.1294 121.833 64.7683 121.971 64.3534C122.125 63.9231 122.202 63.4544 122.202 62.9473C122.202 62.4402 122.125 61.9716 121.971 61.5413C121.817 61.111 121.595 60.7422 121.303 60.4349C121.011 60.1122 120.642 59.8586 120.196 59.6742C119.766 59.4898 119.274 59.3976 118.721 59.3976H114.019V66.4279H118.721ZM126.517 73.85V57.8994H128.338V73.85H126.517ZM135.648 73.85V59.3976H130.347V57.8994H142.679V59.3976H137.423V73.85H135.648ZM153.688 73.85L152.235 69.9545H144.629L143.108 73.85H141.217L147.464 57.8994H149.469L155.647 73.85H153.688ZM148.455 59.9278L145.136 68.4563H151.705L148.455 59.9278ZM157.488 73.85V57.8994H159.286V72.2826H168.183V73.85H157.488Z" fill="#1F3A93"/>
<path d="M0 60.06H7.55C10.67 60.06 13.04 61.67 13.04 64.61C13.074 65.4581 12.8253 66.2935 12.333 66.9849C11.8407 67.6764 11.1326 68.1847 10.32 68.43V68.49C10.9553 68.6694 11.519 69.0421 11.933 69.5564C12.3469 70.0707 12.5905 70.701 12.63 71.36C12.94 73.45 12.72 75.36 13.29 75.62V75.81H9.5C9.09 75.56 9.16 73.73 8.9 72.15C8.89467 71.8241 8.82014 71.5031 8.68135 71.2082C8.54255 70.9133 8.34266 70.6512 8.09493 70.4394C7.84719 70.2276 7.55727 70.0709 7.24437 69.9796C6.93148 69.8883 6.60276 69.8646 6.28 69.91H3.91V75.81H0V60.06ZM6.82 67.06C8.37 67.06 9.16 66.33 9.16 65.13C9.16 63.93 8.4 63.13 6.91 63.13H3.91V67L6.82 67.06Z" fill="#1F3A93"/>
<path d="M14.7803 60.06H26.7103V63.28H18.7103V66.09H25.5903V69.09H18.6603V72.5H26.8403V75.81H14.7803V60.06Z" fill="#1F3A93"/>
<path d="M28.5996 60.06H32.4896V72.5H39.5596V75.81H28.5596V60.06H28.5996Z" fill="#1F3A93"/>
<path d="M41.0703 60.06H45.0003V75.81H41.0703V60.06Z" fill="#1F3A93"/>
<path d="M48.6196 74C47.2126 72.282 46.4622 70.1198 46.5025 67.8996C46.5428 65.6794 47.3712 63.5458 48.8396 61.88C49.5499 61.1822 50.3952 60.6369 51.3238 60.2775C52.2524 59.9181 53.2446 59.7522 54.2396 59.79C58.2396 59.79 60.7096 61.94 61.2396 65.26H57.4296C57.2737 64.5798 56.8794 63.9779 56.3181 63.5633C55.7568 63.1488 55.0655 62.9489 54.3696 63C51.7796 63 50.4796 65.15 50.4796 68C50.4796 70.85 51.9696 73 54.4796 73C55.2885 73.0566 56.0891 72.8059 56.7213 72.2979C57.3534 71.79 57.7706 71.0622 57.8896 70.26H54.9296V67.35H61.4996V75.81H58.7896L58.5596 73.92C58.0803 74.6588 57.4122 75.256 56.6245 75.6499C55.8368 76.0437 54.9582 76.2199 54.0796 76.16C53.0685 76.2063 52.0591 76.0378 51.118 75.6654C50.1768 75.2931 49.3253 74.7255 48.6196 74Z" fill="#1F3A93"/>
<path d="M62.7002 68C62.7002 63.3 65.7002 59.79 70.4702 59.79C75.2402 59.79 78.2702 63.3 78.2702 68C78.2702 72.7 75.2702 76.21 70.4702 76.21C65.6702 76.21 62.7002 72.66 62.7002 68ZM74.3202 68C74.3202 65.13 73.0602 62.95 70.5002 62.95C67.9402 62.95 66.6802 65.11 66.6802 68C66.6802 70.89 68.0002 73 70.5002 73C73.0002 73 74.3202 70.83 74.3202 68Z" fill="#1F3A93"/>
<path d="M49.106 97.13L47.6538 93.2345H40.0473L38.526 97.13H36.6359L42.8825 81.1794H44.8878L51.0652 97.13H49.106ZM43.8736 83.2078L40.5544 91.7363H47.1237L43.8736 83.2078ZM58.9226 95.6548C60.5515 95.6548 61.8038 95.0632 62.6797 93.8799C63.5556 92.6967 63.9936 91.0678 63.9936 88.9933C63.9936 86.842 63.5249 85.2516 62.5875 84.222C61.6655 83.1924 60.321 82.6776 58.5538 82.6776H54.6583V95.6548H58.9226ZM52.9065 97.13V81.1794H58.7843C59.8139 81.1794 60.7589 81.3638 61.6194 81.7326C62.48 82.086 63.2176 82.6008 63.8322 83.2769C64.4623 83.9377 64.9463 84.7521 65.2844 85.7202C65.6378 86.6883 65.8145 87.7794 65.8145 88.9933C65.8145 90.2073 65.6532 91.3137 65.3305 92.3125C65.0232 93.3114 64.5775 94.1719 63.9936 94.8941C63.425 95.601 62.7335 96.1542 61.9191 96.5537C61.12 96.9379 60.2288 97.13 59.2453 97.13H52.9065ZM71.5497 97.13L65.7411 81.1794H67.6542L72.4025 94.5023L77.1508 81.1794H79.0179L73.1862 97.13H71.5497ZM80.9559 97.13V81.1794H82.7768V97.13H80.9559ZM95.9422 85.8816C95.9268 83.4229 94.467 82.1936 91.5627 82.1936C90.1797 82.1936 89.1655 82.4548 88.5201 82.9773C87.8747 83.4844 87.5519 84.1759 87.5519 85.0518C87.5519 85.7279 87.6979 86.2658 87.9899 86.6653C88.2972 87.0648 88.6968 87.3798 89.1885 87.6103C89.6802 87.8255 90.2334 87.9868 90.8481 88.0944C91.4781 88.1866 92.1159 88.2865 92.7613 88.394C93.422 88.5016 94.0597 88.6322 94.6744 88.7859C95.3044 88.9396 95.8653 89.1777 96.3571 89.5004C96.8488 89.8231 97.2406 90.2611 97.5326 90.8143C97.8399 91.3675 97.9936 92.0897 97.9936 92.981C97.9936 93.7186 97.8399 94.3794 97.5326 94.9633C97.2406 95.5472 96.8334 96.039 96.3109 96.4385C95.8039 96.838 95.1969 97.1454 94.49 97.3605C93.7985 97.5756 93.0532 97.6832 92.2542 97.6832C90.026 97.6832 88.3587 97.2452 87.2523 96.3693C86.1613 95.4781 85.5773 94.1412 85.5005 92.3586H87.2523C87.283 93.6648 87.7056 94.6329 88.5201 95.2629C89.3499 95.893 90.5254 96.208 92.0467 96.208C93.3375 96.208 94.3594 95.9237 95.1123 95.3551C95.8807 94.7712 96.2649 93.9721 96.2649 92.9579C96.2649 92.0052 96.0036 91.3137 95.4811 90.8834C94.9587 90.4378 94.1673 90.1382 93.107 89.9845C91.8777 89.8155 90.8097 89.6387 89.9031 89.4543C88.9964 89.2546 88.2435 88.978 87.6442 88.6245C87.0602 88.2711 86.6223 87.8178 86.3303 87.2646C86.0537 86.696 85.9154 85.9584 85.9154 85.0518C85.9154 84.4525 86.0307 83.8839 86.2612 83.3461C86.4917 82.8083 86.8374 82.3396 87.2984 81.94C87.7748 81.5405 88.3664 81.2255 89.0733 80.995C89.7801 80.7645 90.6099 80.6492 91.5627 80.6492C93.5142 80.6492 95.0125 81.1026 96.0574 82.0092C97.1177 82.9158 97.6479 84.2066 97.6479 85.8816H95.9422ZM106.943 96.1388C108.618 96.1388 109.948 95.578 110.931 94.4562C111.915 93.3344 112.406 91.6364 112.406 89.3621C112.406 87.0264 111.945 85.2592 111.023 84.0606C110.117 82.862 108.757 82.2627 106.943 82.2627C105.13 82.2627 103.755 82.862 102.818 84.0606C101.896 85.2592 101.435 87.0187 101.435 89.3391C101.435 91.6441 101.896 93.3575 102.818 94.4792C103.755 95.5856 105.13 96.1388 106.943 96.1388ZM106.943 97.6832C104.562 97.6832 102.748 96.9763 101.504 95.5626C100.259 94.1489 99.6366 92.059 99.6366 89.293C99.6366 87.9407 99.798 86.7344 100.121 85.6741C100.443 84.5985 100.912 83.6918 101.527 82.9542C102.157 82.2013 102.925 81.6327 103.832 81.2485C104.738 80.849 105.776 80.6492 106.943 80.6492C108.111 80.6492 109.141 80.849 110.032 81.2485C110.939 81.6327 111.699 82.2013 112.314 82.9542C112.929 83.7072 113.39 84.6215 113.697 85.6972C114.02 86.7729 114.181 87.9945 114.181 89.3621C114.181 92.1742 113.574 94.2641 112.36 95.6317C111.146 96.9994 109.341 97.6832 106.943 97.6832ZM127.022 97.13V92.981C127.022 92.5354 126.969 92.1435 126.861 91.8054C126.769 91.452 126.6 91.16 126.354 90.9295C126.108 90.699 125.77 90.53 125.34 90.4224C124.909 90.2995 124.364 90.238 123.703 90.238H118.586V97.13H116.834V81.1794H124.51C125.217 81.1794 125.855 81.287 126.423 81.5021C127.007 81.7019 127.499 81.9938 127.898 82.378C128.313 82.7622 128.628 83.2232 128.843 83.761C129.058 84.2988 129.166 84.8904 129.166 85.5358C129.166 86.5193 128.889 87.3798 128.336 88.1174C127.798 88.8397 127.022 89.293 126.008 89.4774C127.022 89.6157 127.737 89.9461 128.152 90.4685C128.567 90.9756 128.774 91.7363 128.774 92.7505V97.13H127.022ZM124.026 88.7628C124.641 88.7628 125.163 88.6783 125.593 88.5093C126.039 88.3403 126.4 88.1174 126.677 87.8408C126.953 87.5642 127.153 87.2415 127.276 86.8727C127.414 86.5039 127.483 86.1121 127.483 85.6972C127.483 84.7598 127.214 84.0222 126.677 83.4844C126.139 82.9466 125.317 82.6776 124.21 82.6776H118.586V88.7628H124.026ZM141.614 85.8816C141.599 83.4229 140.139 82.1936 137.235 82.1936C135.852 82.1936 134.838 82.4548 134.192 82.9773C133.547 83.4844 133.224 84.1759 133.224 85.0518C133.224 85.7279 133.37 86.2658 133.662 86.6653C133.97 87.0648 134.369 87.3798 134.861 87.6103C135.353 87.8255 135.906 87.9868 136.52 88.0944C137.15 88.1866 137.788 88.2865 138.434 88.394C139.094 88.5016 139.732 88.6322 140.347 88.7859C140.977 88.9396 141.538 89.1777 142.029 89.5004C142.521 89.8231 142.913 90.2611 143.205 90.8143C143.512 91.3675 143.666 92.0897 143.666 92.981C143.666 93.7186 143.512 94.3794 143.205 94.9633C142.913 95.5472 142.506 96.039 141.983 96.4385C141.476 96.838 140.869 97.1454 140.162 97.3605C139.471 97.5756 138.726 97.6832 137.926 97.6832C135.698 97.6832 134.031 97.2452 132.925 96.3693C131.834 95.4781 131.25 94.1412 131.173 92.3586H132.925C132.955 93.6648 133.378 94.6329 134.192 95.2629C135.022 95.893 136.198 96.208 137.719 96.208C139.01 96.208 140.032 95.9237 140.785 95.3551C141.553 94.7712 141.937 93.9721 141.937 92.9579C141.937 92.0052 141.676 91.3137 141.153 90.8834C140.631 90.4378 139.84 90.1382 138.779 89.9845C137.55 89.8155 136.482 89.6387 135.575 89.4543C134.669 89.2546 133.916 88.978 133.316 88.6245C132.733 88.2711 132.295 87.8178 132.003 87.2646C131.726 86.696 131.588 85.9584 131.588 85.0518C131.588 84.4525 131.703 83.8839 131.933 83.3461C132.164 82.8083 132.51 82.3396 132.971 81.94C133.447 81.5405 134.039 81.2255 134.746 80.995C135.452 80.7645 136.282 80.6492 137.235 80.6492C139.187 80.6492 140.685 81.1026 141.73 82.0092C142.79 82.9158 143.32 84.2066 143.32 85.8816H141.614Z" fill="#1F3A93"/>
</svg>
