<svg width="172" height="131" viewBox="0 0 172 131" fill="none" xmlns="http://www.w3.org/2000/svg">
<path d="M87.6161 11.9146V7.01656L93.6187 3.6087V0L59.2485 19.9936V52.7603L70.4375 59.2164V28.1829L76.4271 24.7718V40.7583L87.6161 34.3054V18.3707L93.6187 14.9628V11.3541L62.0279 29.7248V21.5486L67.7034 18.3383V23.4695L70.4828 21.8498V16.7478L76.4498 13.3399V18.3707L79.2325 16.751V11.7493L84.8917 8.53909V13.4727L87.6063 11.9146H87.6161ZM84.8334 32.7375L79.1742 35.9769V23.2039L84.8334 19.9936V32.7375ZM67.6224 29.8026V54.4642L61.9632 51.2248V33.042L67.6224 29.8026Z" fill="#09163D"/>
<path d="M76.5146 60.7714L87.4639 67.0882V48.3645L76.5146 42.0476V60.7714ZM79.2358 46.7771L84.7751 49.9518V62.3911L79.2358 59.2165V46.7771Z" fill="#09163D"/>
<path d="M93.327 58.9898V63.7841L87.4961 67.0883V70.6192L121.121 51.0532V18.983L110.172 12.6338V43.0195L104.309 46.3561V30.7097L93.327 37.0589V52.6405L87.4961 55.9447V59.4757L118.4 41.4969V49.4983L112.861 52.6405V47.6194L110.14 49.2067V54.1954L104.309 57.532V52.6081L101.588 54.1954V59.0869L96.0481 62.2292V57.4024L93.327 58.9898ZM96.0481 38.6139L101.588 35.4392V47.9434L96.0481 51.0856V38.6139ZM112.893 41.4969V17.3633L118.432 20.538V38.3223L112.893 41.4969Z" fill="#09163D"/>
<path d="M104.795 10.0941L93.5732 3.61523V22.7407L104.762 29.1936V10.0811L104.795 10.0941ZM102.015 24.396L96.3527 21.1566V8.44196L102.015 11.6814V24.396Z" fill="#09163D"/>
<path d="M162.08 102.041V86.2202H163.726V100.566H172V102.041H162.08Z" fill="#09163D"/>
<path d="M146.046 102.041L151.669 86.2202H153.7L159.345 102.041H157.592L156.159 97.9579H149.232L147.8 102.041H146.046ZM149.745 96.4613H155.646L152.696 88.123L149.745 96.4613Z" fill="#09163D"/>
<path d="M139.109 102.041V87.6954H133.978V86.2202H145.886V87.6954H140.755V102.041H139.109Z" fill="#09163D"/>
<path d="M129.613 102.041V86.2202H131.259V102.041H129.613Z" fill="#09163D"/>
<path d="M116.125 102.041V86.2202H121.641C122.81 86.2202 123.786 86.4696 124.57 86.9685C125.354 87.4531 125.938 88.0803 126.323 88.85C126.722 89.6197 126.922 90.4178 126.922 91.2445C126.922 92.0997 126.722 92.9122 126.323 93.6819C125.938 94.4516 125.354 95.0858 124.57 95.5847C123.786 96.0693 122.81 96.3116 121.641 96.3116H117.771V102.041H116.125ZM121.641 87.6954H117.771V94.8364H121.641C122.454 94.8364 123.131 94.6654 123.672 94.3233C124.214 93.9812 124.62 93.5393 124.891 92.9977C125.162 92.4418 125.297 91.8646 125.297 91.2659C125.297 90.6673 125.162 90.0971 124.891 89.5555C124.62 88.9996 124.214 88.5506 123.672 88.2086C123.131 87.8665 122.454 87.6954 121.641 87.6954Z" fill="#09163D"/>
<path d="M100.092 102.041L105.715 86.2202H107.746L113.39 102.041H111.637L110.205 97.9579H103.277L101.845 102.041H100.092ZM103.791 96.4613H109.691L106.741 88.123L103.791 96.4613Z" fill="#09163D"/>
<path d="M92.1071 102.255C90.8813 102.255 89.8052 102.027 88.8787 101.571C87.9522 101.101 87.1825 100.481 86.5696 99.711C85.9567 98.9271 85.4935 98.0576 85.1799 97.1026C84.8806 96.1334 84.731 95.1428 84.731 94.1308C84.731 93.1188 84.8806 92.1282 85.1799 91.159C85.4935 90.1897 85.9567 89.3203 86.5696 88.5506C87.1825 87.7666 87.9522 87.1466 88.8787 86.6905C89.8052 86.2344 90.8813 86.0063 92.1071 86.0063C93.1048 86.0063 93.96 86.1346 94.6727 86.3912C95.3996 86.6478 96.0054 86.9827 96.49 87.3961C96.9746 87.8094 97.3666 88.2441 97.6659 88.7002C97.9652 89.1564 98.1862 89.5911 98.3287 90.0044C98.4855 90.4178 98.5853 90.7527 98.628 91.0093C98.685 91.2659 98.7135 91.3941 98.7135 91.3941H97.0459C97.0459 91.3941 97.0174 91.2659 96.9604 91.0093C96.9034 90.7527 96.7822 90.432 96.5969 90.0472C96.4116 89.6623 96.1337 89.2775 95.7631 88.8927C95.4068 88.5078 94.9293 88.1871 94.3306 87.9306C93.7462 87.674 93.0051 87.5457 92.1071 87.5457C91.1664 87.5457 90.3397 87.731 89.627 88.1016C88.9143 88.4722 88.3157 88.9782 87.8311 89.6196C87.3607 90.2467 87.0044 90.9523 86.7621 91.7362C86.5198 92.5059 86.3986 93.3041 86.3986 94.1308C86.3986 94.9432 86.5198 95.7414 86.7621 96.5254C87.0044 97.3093 87.3607 98.022 87.8311 98.6634C88.3157 99.2905 88.9143 99.7894 89.627 100.16C90.3397 100.531 91.1664 100.716 92.1071 100.716C93.0051 100.716 93.7462 100.588 94.3306 100.331C94.9293 100.074 95.4068 99.7538 95.7631 99.3689C96.1337 98.9841 96.4116 98.5992 96.5969 98.2144C96.7822 97.8295 96.9034 97.5088 96.9604 97.2523C97.0174 96.9815 97.0459 96.8461 97.0459 96.8461H98.7135C98.7135 96.8461 98.685 96.9815 98.628 97.2523C98.5853 97.5088 98.4855 97.8438 98.3287 98.2572C98.1862 98.6562 97.9652 99.091 97.6659 99.5613C97.3666 100.017 96.9746 100.452 96.49 100.866C96.0054 101.279 95.3996 101.614 94.6727 101.87C93.96 102.127 93.1048 102.255 92.1071 102.255Z" fill="#09163D"/>
<path d="M0 85.5334H7.74219C10.9492 85.5334 13.3788 87.1855 13.3788 90.1982C13.3788 92.0771 12.4393 93.4376 10.5929 94.1179V94.1827C11.9858 94.6686 12.7309 95.5432 12.9576 97.1305C13.2816 99.2685 13.0548 101.277 13.6379 101.504V101.698H9.75062C9.3295 101.439 9.39429 99.5601 9.13514 97.9404C8.94077 96.4503 8.16331 95.6404 6.44643 95.6404H4.01687V101.698H0.0323942V85.5334H0ZM6.99713 92.6601C8.58444 92.6601 9.39429 91.9151 9.39429 90.6841C9.39429 89.5179 8.61683 88.6757 7.09431 88.6757H3.98447V92.6601H6.99713Z" fill="#09163D"/>
<path d="M15.1602 85.5334H27.4051V88.8376H19.1446V91.7207H26.2065V94.8306H19.1446V98.2967H27.5347V101.698H15.1602V85.5334Z" fill="#09163D"/>
<path d="M29.3491 85.5334H33.3336V98.2967H40.5899V101.698H29.3491V85.5334Z" fill="#09163D"/>
<path d="M42.1445 85.5334H46.129V101.698H42.1445V85.5334Z" fill="#09163D"/>
<path d="M49.8867 99.7868C48.4938 98.2643 47.7163 96.1263 47.7163 93.6643C47.7163 91.1376 48.5909 88.9024 50.1135 87.3475C51.4416 85.9869 53.3205 85.2095 55.6529 85.2095C59.7993 85.2095 62.2937 87.4123 62.812 90.8136H58.9247C58.6331 89.5179 57.5317 88.5137 55.7824 88.5137C53.1261 88.5137 51.798 90.7165 51.798 93.6643C51.798 96.6122 53.3205 98.815 55.8796 98.815C57.9852 98.815 59.2162 97.422 59.3782 95.9967V95.9643H56.3655V93.0165H63.1035V101.698H60.3176L60.0909 99.7544H60.0585C58.9895 101.407 57.4021 102.054 55.4585 102.054C53.0937 102.054 51.2149 101.196 49.8867 99.7868Z" fill="#09163D"/>
<path d="M64.335 93.6319C64.335 88.8052 67.4448 85.2095 72.3039 85.2095C77.163 85.2095 80.3052 88.8052 80.3052 93.6319C80.3052 98.4587 77.1954 102.054 72.3039 102.054C67.4124 102.054 64.335 98.4425 64.335 93.6319ZM76.256 93.6319C76.256 90.6841 74.9602 88.4489 72.3363 88.4489C69.7124 88.4489 68.4166 90.7165 68.4166 93.6319C68.4166 96.5474 69.7448 98.815 72.3363 98.815C74.9278 98.815 76.256 96.5636 76.256 93.6319Z" fill="#09163D"/>
<path d="M133.635 130.114C132.708 130.114 131.917 130 131.262 129.772C130.62 129.53 130.086 129.223 129.658 128.853C129.245 128.482 128.91 128.09 128.653 127.677C128.411 127.263 128.233 126.871 128.119 126.501C128.005 126.13 127.934 125.831 127.905 125.603C127.877 125.361 127.862 125.239 127.862 125.239H129.53C129.53 125.239 129.544 125.353 129.573 125.582C129.615 125.81 129.701 126.095 129.829 126.437C129.972 126.765 130.193 127.1 130.492 127.442C130.791 127.769 131.198 128.047 131.711 128.275C132.224 128.489 132.88 128.596 133.678 128.596C134.761 128.596 135.638 128.318 136.307 127.762C136.977 127.206 137.312 126.487 137.312 125.603C137.312 124.776 137.041 124.149 136.5 123.721C135.972 123.294 135.274 122.973 134.405 122.759L132.374 122.268C131.604 122.068 130.913 121.804 130.3 121.477C129.687 121.134 129.202 120.7 128.846 120.172C128.489 119.631 128.311 118.968 128.311 118.184C128.311 117.286 128.532 116.516 128.974 115.875C129.416 115.234 130.015 114.742 130.77 114.4C131.525 114.043 132.388 113.865 133.357 113.865C134.326 113.865 135.124 114.015 135.752 114.314C136.379 114.614 136.878 114.984 137.248 115.426C137.619 115.854 137.89 116.288 138.061 116.73C138.246 117.172 138.36 117.543 138.403 117.842C138.46 118.141 138.488 118.291 138.488 118.291H136.863C136.863 118.291 136.849 118.191 136.821 117.992C136.792 117.792 136.714 117.55 136.585 117.265C136.471 116.965 136.286 116.673 136.03 116.388C135.773 116.089 135.424 115.839 134.982 115.64C134.54 115.44 133.984 115.34 133.314 115.34C132.202 115.34 131.362 115.618 130.791 116.174C130.221 116.716 129.936 117.35 129.936 118.077C129.936 118.747 130.164 119.282 130.62 119.681C131.091 120.08 131.739 120.379 132.566 120.579L134.725 121.113C135.538 121.313 136.258 121.598 136.885 121.968C137.526 122.339 138.032 122.816 138.403 123.401C138.773 123.985 138.959 124.691 138.959 125.517C138.959 126.344 138.745 127.107 138.317 127.805C137.904 128.503 137.298 129.066 136.5 129.494C135.716 129.907 134.761 130.114 133.635 130.114Z" fill="#09163D"/>
<path d="M114.681 129.9V114.079H120.026C121.109 114.079 122.015 114.3 122.741 114.742C123.468 115.169 124.01 115.725 124.366 116.41C124.723 117.079 124.901 117.792 124.901 118.548C124.901 119.189 124.765 119.809 124.495 120.408C124.238 121.006 123.846 121.527 123.319 121.968C122.791 122.41 122.129 122.717 121.33 122.888L125.435 129.9H123.575L119.577 123.016H116.327V129.9H114.681ZM120.005 115.554H116.327V121.584H120.005C120.732 121.584 121.33 121.441 121.801 121.156C122.271 120.857 122.627 120.479 122.87 120.023C123.112 119.552 123.233 119.068 123.233 118.569C123.233 118.07 123.112 117.593 122.87 117.136C122.627 116.666 122.271 116.288 121.801 116.003C121.33 115.704 120.732 115.554 120.005 115.554Z" fill="#09163D"/>
<path d="M104.134 130.114C102.894 130.114 101.797 129.886 100.842 129.43C99.9012 128.96 99.1102 128.34 98.4688 127.57C97.8416 126.786 97.3641 125.909 97.0363 124.94C96.7227 123.971 96.5659 122.98 96.5659 121.968C96.5659 120.971 96.7227 119.987 97.0363 119.018C97.3641 118.049 97.8416 117.179 98.4688 116.409C99.1102 115.626 99.9012 115.006 100.842 114.549C101.797 114.093 102.894 113.865 104.134 113.865C105.375 113.865 106.465 114.093 107.406 114.549C108.346 115.006 109.13 115.626 109.757 116.409C110.399 117.179 110.883 118.049 111.211 119.018C111.539 119.987 111.703 120.971 111.703 121.968C111.703 122.98 111.539 123.971 111.211 124.94C110.883 125.909 110.399 126.786 109.757 127.57C109.13 128.34 108.346 128.96 107.406 129.43C106.465 129.886 105.375 130.114 104.134 130.114ZM104.134 128.575C105.289 128.575 106.308 128.29 107.192 127.72C108.076 127.135 108.767 126.344 109.266 125.346C109.765 124.349 110.014 123.223 110.014 121.968C110.014 120.728 109.765 119.616 109.266 118.633C108.767 117.635 108.076 116.851 107.192 116.281C106.308 115.697 105.289 115.405 104.134 115.405C102.966 115.405 101.939 115.697 101.056 116.281C100.172 116.851 99.4807 117.635 98.9819 118.633C98.483 119.616 98.2336 120.728 98.2336 121.968C98.2336 123.223 98.483 124.349 98.9819 125.346C99.4807 126.344 100.172 127.135 101.056 127.72C101.939 128.29 102.966 128.575 104.134 128.575Z" fill="#09163D"/>
<path d="M88.5988 130.114C87.6723 130.114 86.8813 130 86.2256 129.772C85.5842 129.53 85.0497 129.223 84.6221 128.853C84.2088 128.482 83.8738 128.09 83.6172 127.677C83.3749 127.263 83.1968 126.871 83.0827 126.501C82.9687 126.13 82.8974 125.831 82.8689 125.603C82.8404 125.361 82.8262 125.239 82.8262 125.239H84.4938C84.4938 125.239 84.5081 125.353 84.5366 125.582C84.5793 125.81 84.6649 126.095 84.7931 126.437C84.9357 126.765 85.1566 127.1 85.4559 127.442C85.7553 127.769 86.1615 128.047 86.6746 128.275C87.1877 128.489 87.8434 128.596 88.6416 128.596C89.7248 128.596 90.6014 128.318 91.2713 127.762C91.9412 127.206 92.2762 126.487 92.2762 125.603C92.2762 124.776 92.0054 124.149 91.4637 123.721C90.9364 123.294 90.2379 122.973 89.3685 122.759L87.3374 122.268C86.5677 122.068 85.8764 121.804 85.2635 121.477C84.6506 121.134 84.166 120.7 83.8097 120.172C83.4533 119.631 83.2752 118.968 83.2752 118.184C83.2752 117.286 83.4961 116.516 83.9379 115.875C84.3798 115.234 84.9784 114.742 85.7339 114.4C86.4893 114.043 87.3516 113.865 88.3209 113.865C89.2901 113.865 90.0883 114.015 90.7154 114.314C91.3426 114.614 91.8414 114.984 92.212 115.426C92.5826 115.854 92.8534 116.288 93.0245 116.73C93.2098 117.172 93.3238 117.543 93.3666 117.842C93.4236 118.141 93.4521 118.291 93.4521 118.291H91.8272C91.8272 118.291 91.8129 118.191 91.7844 117.992C91.7559 117.792 91.6775 117.55 91.5493 117.265C91.4352 116.965 91.2499 116.673 90.9934 116.388C90.7368 116.089 90.3876 115.839 89.9458 115.64C89.5039 115.44 88.948 115.34 88.2781 115.34C87.1663 115.34 86.3254 115.618 85.7552 116.174C85.1851 116.716 84.9 117.35 84.9 118.077C84.9 118.747 85.1281 119.282 85.5842 119.681C86.0546 120.08 86.7031 120.379 87.5298 120.579L89.6892 121.113C90.5016 121.313 91.2214 121.598 91.8486 121.968C92.49 122.339 92.996 122.816 93.3666 123.401C93.7372 123.985 93.9225 124.691 93.9225 125.517C93.9225 126.344 93.7086 127.107 93.281 127.805C92.8677 128.503 92.2619 129.066 91.4637 129.494C90.6798 129.907 89.7248 130.114 88.5988 130.114Z" fill="#09163D"/>
<path d="M78.2266 129.9V114.079H79.8728V129.9H78.2266Z" fill="#09163D"/>
<path d="M67.9999 129.9L62.377 114.079H64.1087L69.0262 127.998L73.9222 114.079H75.6754L70.031 129.9H67.9999Z" fill="#09163D"/>
<path d="M48.2231 129.9V114.079H53.1619C54.4162 114.079 55.5138 114.307 56.4545 114.763C57.3952 115.205 58.172 115.804 58.7849 116.559C59.4121 117.315 59.8824 118.163 60.196 119.103C60.5096 120.044 60.6664 121.006 60.6664 121.99C60.6664 122.973 60.5096 123.935 60.196 124.876C59.8824 125.817 59.4121 126.665 58.7849 127.42C58.172 128.176 57.3952 128.781 56.4545 129.238C55.5138 129.679 54.4162 129.9 53.1619 129.9H48.2231ZM53.1192 115.554H49.8694V128.425H53.1192C54.1027 128.425 54.9579 128.247 55.6848 127.891C56.426 127.52 57.0389 127.028 57.5235 126.415C58.0224 125.803 58.3929 125.111 58.6353 124.342C58.8776 123.572 58.9987 122.788 58.9987 121.99C58.9987 121.192 58.8776 120.408 58.6353 119.638C58.3929 118.868 58.0224 118.177 57.5235 117.564C57.0389 116.951 56.426 116.467 55.6848 116.11C54.9579 115.74 54.1027 115.554 53.1192 115.554Z" fill="#09163D"/>
<path d="M32.1899 129.9L37.8129 114.079H39.844L45.4884 129.9H43.7352L42.3027 125.817H35.3756L33.9431 129.9H32.1899ZM35.8887 124.32H41.7896L38.8392 115.982L35.8887 124.32Z" fill="#09163D"/>
</svg>
