<svg width="172" height="104" viewBox="0 0 172 104" fill="none" xmlns="http://www.w3.org/2000/svg">
<g clip-path="url(#clip0_53_25)">
<path d="M84.17 8.49V5L88.44 2.57V0L64 14.24V37.57L72 42.17V20.06L76.26 17.63V29L84.26 24.4V13.08L88.53 10.65V8.08L66 21.17V15.34L70 13.06V16.71L72 15.56V11.93L76.23 9.5V13.08L78.23 11.93V8.37L82.23 6.08V9.59L84.16 8.49H84.17ZM82.17 23.31L78.17 25.62V16.52L82.17 14.24V23.31ZM69.91 21.21V38.77L65.91 36.46V23.52L69.91 21.21Z" fill="#1F3A93"/>
<path d="M76.2695 43.28L84.0595 47.77V34.44L76.2695 29.94V43.28ZM78.1995 33.28L82.1995 35.54V44.4L78.1995 42.14V33.28Z" fill="#1F3A93"/>
<path d="M88.2398 42V45.41L84.0898 47.76V50.28L108 36.36V13.52L100.23 9V30.63L96.0598 33V21.87L88.2398 26.39V37.49L84.0898 39.84V42.35L106.09 29.55V35.25L102.15 37.49V33.91L100.21 35V38.55L96.0598 41V37.46L94.1199 38.59V42.08L90.1798 44.31V40.88L88.2398 42ZM90.1798 27.5L94.1199 25.24V34.14L90.1798 36.38V27.5ZM102.18 29.55V12.36L106.18 14.63V27.29L102.18 29.55Z" fill="#1F3A93"/>
<path d="M96.4004 7.19001L88.4004 2.57001V16.19L96.4004 20.79V7.19001ZM94.4004 17.37L90.4004 15.06V6.00001L94.4004 8.31001V17.37Z" fill="#1F3A93"/>
<path d="M94.7997 62.325H92.7698C92.6497 61.7411 92.4396 61.2281 92.1395 60.7861C91.8448 60.3441 91.4847 59.973 91.059 59.6729C90.6388 59.3673 90.1723 59.1381 89.6593 58.9853C89.1464 58.8326 88.6116 58.7562 88.055 58.7562C87.04 58.7562 86.1205 59.0126 85.2965 59.5256C84.478 60.0385 83.8259 60.7943 83.3402 61.7929C82.86 62.7915 82.6199 64.0166 82.6199 65.4682C82.6199 66.9197 82.86 68.1448 83.3402 69.1434C83.8259 70.142 84.478 70.8978 85.2965 71.4107C86.1205 71.9237 87.04 72.1802 88.055 72.1802C88.6116 72.1802 89.1464 72.1038 89.6593 71.951C90.1723 71.7982 90.6388 71.5717 91.059 71.2716C91.4847 70.966 91.8448 70.5922 92.1395 70.1502C92.4396 69.7027 92.6497 69.1898 92.7698 68.6113H94.7997C94.6469 69.4681 94.3686 70.2348 93.9648 70.9114C93.561 71.5881 93.059 72.1638 92.4587 72.6385C91.8585 73.1078 91.1845 73.4653 90.4369 73.7108C89.6948 73.9564 88.9008 74.0792 88.055 74.0792C86.6253 74.0792 85.3538 73.7299 84.2406 73.0314C83.1274 72.333 82.2516 71.3398 81.6131 70.052C80.9746 68.7641 80.6554 67.2362 80.6554 65.4682C80.6554 63.7001 80.9746 62.1722 81.6131 60.8844C82.2516 59.5965 83.1274 58.6034 84.2406 57.9049C85.3538 57.2064 86.6253 56.8571 88.055 56.8571C88.9008 56.8571 89.6948 56.9799 90.4369 57.2255C91.1845 57.4711 91.8585 57.8312 92.4587 58.306C93.059 58.7753 93.561 59.3482 93.9648 60.0249C94.3686 60.6961 94.6469 61.4628 94.7997 62.325ZM98.7676 73.85H96.6394L102.795 57.0863H104.89L111.046 73.85H108.917L103.908 59.7384H103.777L98.7676 73.85ZM99.5534 67.3017H108.132V69.1025H99.5534V67.3017ZM113.657 73.85V57.0863H119.321C120.636 57.0863 121.711 57.3237 122.546 57.7985C123.386 58.2678 124.009 58.9035 124.412 59.7057C124.816 60.5078 125.018 61.4028 125.018 62.3905C125.018 63.3782 124.816 64.2758 124.412 65.0834C124.014 65.8911 123.397 66.535 122.562 67.0152C121.728 67.4899 120.658 67.7273 119.354 67.7273H115.294V65.9265H119.288C120.189 65.9265 120.912 65.771 121.457 65.46C122.003 65.1489 122.399 64.7287 122.644 64.1994C122.895 63.6646 123.021 63.0617 123.021 62.3905C123.021 61.7193 122.895 61.119 122.644 60.5897C122.399 60.0604 122 59.6456 121.449 59.3455C120.898 59.0399 120.167 58.8871 119.256 58.8871H115.687V73.85H113.657ZM130.318 57.0863V73.85H128.288V57.0863H130.318ZM133.472 58.8871V57.0863H146.044V58.8871H140.773V73.85H138.743V58.8871H133.472ZM147.906 73.85H145.778L151.934 57.0863H154.029L160.184 73.85H158.056L153.047 59.7384H152.916L147.906 73.85ZM148.692 67.3017H157.27V69.1025H148.692V67.3017ZM162.796 73.85V57.0863H164.826V72.0492H172.618V73.85H162.796Z" fill="#1F3A93"/>
<path d="M0 60.06H7.55C10.67 60.06 13.04 61.67 13.04 64.61C13.074 65.4581 12.8253 66.2935 12.333 66.9849C11.8407 67.6764 11.1326 68.1847 10.32 68.43V68.49C10.9553 68.6694 11.519 69.0421 11.933 69.5564C12.3469 70.0707 12.5905 70.701 12.63 71.36C12.94 73.45 12.72 75.36 13.29 75.62V75.81H9.5C9.09 75.56 9.16 73.73 8.9 72.15C8.89467 71.8241 8.82014 71.5031 8.68135 71.2082C8.54255 70.9133 8.34266 70.6512 8.09493 70.4394C7.84719 70.2276 7.55727 70.0709 7.24437 69.9796C6.93148 69.8883 6.60276 69.8646 6.28 69.91H3.91V75.81H0V60.06ZM6.82 67.06C8.37 67.06 9.16 66.33 9.16 65.13C9.16 63.93 8.4 63.13 6.91 63.13H3.91V67L6.82 67.06Z" fill="#1F3A93"/>
<path d="M14.7803 60.06H26.7103V63.28H18.7103V66.09H25.5903V69.09H18.6603V72.5H26.8403V75.81H14.7803V60.06Z" fill="#1F3A93"/>
<path d="M28.5996 60.06H32.4896V72.5H39.5596V75.81H28.5596V60.06H28.5996Z" fill="#1F3A93"/>
<path d="M41.0703 60.06H45.0003V75.81H41.0703V60.06Z" fill="#1F3A93"/>
<path d="M48.6196 74C47.2126 72.282 46.4622 70.1198 46.5025 67.8996C46.5428 65.6793 47.3712 63.5458 48.8396 61.88C49.5499 61.1822 50.3952 60.6369 51.3238 60.2775C52.2524 59.9181 53.2446 59.7522 54.2396 59.79C58.2396 59.79 60.7096 61.94 61.2396 65.26H57.4296C57.2737 64.5798 56.8794 63.9779 56.3181 63.5633C55.7568 63.1487 55.0655 62.9489 54.3696 63C51.7796 63 50.4796 65.15 50.4796 68C50.4796 70.85 51.9696 73 54.4796 73C55.2885 73.0566 56.0891 72.8059 56.7213 72.2979C57.3534 71.79 57.7706 71.0622 57.8896 70.26H54.9296V67.35H61.4996V75.81H58.7896L58.5596 73.92C58.0803 74.6588 57.4122 75.256 56.6245 75.6499C55.8368 76.0437 54.9582 76.2198 54.0796 76.16C53.0685 76.2063 52.0591 76.0377 51.118 75.6654C50.1768 75.2931 49.3253 74.7255 48.6196 74Z" fill="#1F3A93"/>
<path d="M62.7002 68C62.7002 63.3 65.7002 59.79 70.4702 59.79C75.2402 59.79 78.2702 63.3 78.2702 68C78.2702 72.7 75.2702 76.21 70.4702 76.21C65.6702 76.21 62.7002 72.66 62.7002 68ZM74.3202 68C74.3202 65.13 73.0602 62.95 70.5002 62.95C67.9402 62.95 66.6802 65.11 66.6802 68C66.6802 70.89 68.0002 73 70.5002 73C73.0002 73 74.3202 70.83 74.3202 68Z" fill="#1F3A93"/>
<path d="M39.3074 97.13H37.1792L43.3346 80.3664H45.43L51.5854 97.13H49.4572L44.4478 83.0184H44.3168L39.3074 97.13ZM40.0932 90.5817H48.6714V92.3825H40.0932V90.5817ZM59.3697 97.13H54.1966V80.3664H59.5989C61.2251 80.3664 62.6166 80.702 63.7735 81.3732C64.9303 82.0389 65.8171 82.9966 66.4337 84.2462C67.0503 85.4904 67.3586 86.9801 67.3586 88.7154C67.3586 90.4617 67.0476 91.965 66.4255 93.2256C65.8034 94.4807 64.8976 95.4465 63.708 96.1232C62.5184 96.7944 61.0723 97.13 59.3697 97.13ZM56.2265 95.3292H59.2388C60.6248 95.3292 61.7735 95.0618 62.6848 94.5271C63.5961 93.9923 64.2755 93.231 64.723 92.2433C65.1704 91.2556 65.3942 90.0797 65.3942 88.7154C65.3942 87.3621 65.1732 86.1971 64.7311 85.2203C64.2891 84.238 63.6288 83.485 62.7503 82.9611C61.8717 82.4318 60.7776 82.1671 59.468 82.1671H56.2265V95.3292ZM70.6635 80.3664L75.6402 94.4779H75.8366L80.8133 80.3664H82.9415L76.7861 97.13H74.6907L68.5353 80.3664H70.6635ZM87.5826 80.3664V97.13H85.5527V80.3664H87.5826ZM100.82 84.5573C100.722 83.7278 100.324 83.0839 99.6254 82.6255C98.9269 82.1671 98.0701 81.938 97.0552 81.938C96.313 81.938 95.6637 82.058 95.107 82.2981C94.5559 82.5382 94.1248 82.8684 93.8138 83.2885C93.5082 83.7087 93.3554 84.1862 93.3554 84.721C93.3554 85.1685 93.4618 85.5532 93.6746 85.8751C93.8929 86.1916 94.1712 86.4563 94.5095 86.6691C94.8478 86.8765 95.2025 87.0484 95.5736 87.1848C95.9447 87.3157 96.2857 87.4222 96.5968 87.504L98.2993 87.9624C98.7359 88.077 99.2216 88.2352 99.7563 88.4371C100.297 88.639 100.812 88.9146 101.303 89.2639C101.8 89.6077 102.209 90.0497 102.531 90.5899C102.853 91.1301 103.014 91.7931 103.014 92.5789C103.014 93.4848 102.777 94.3033 102.302 95.0346C101.833 95.7658 101.145 96.3469 100.239 96.778C99.3389 97.2091 98.2448 97.4247 96.9569 97.4247C95.7564 97.4247 94.7169 97.231 93.8383 96.8435C92.9652 96.4561 92.2776 95.9158 91.7756 95.2228C91.279 94.5298 90.998 93.7249 90.9325 92.8081H93.028C93.0825 93.4411 93.2954 93.965 93.6664 94.3797C94.0429 94.789 94.5177 95.0946 95.0907 95.2965C95.6691 95.4929 96.2912 95.5912 96.9569 95.5912C97.7318 95.5912 98.4276 95.4656 99.0442 95.2146C99.6608 94.9582 100.149 94.6035 100.509 94.1505C100.87 93.6921 101.05 93.1574 101.05 92.5462C101.05 91.9896 100.894 91.5367 100.583 91.1874C100.272 90.8382 99.8627 90.5544 99.3553 90.3361C98.8478 90.1179 98.2993 89.9269 97.71 89.7632L95.6473 89.1738C94.3376 88.7973 93.3008 88.2598 92.5368 87.5613C91.7729 86.8628 91.3909 85.9488 91.3909 84.8192C91.3909 83.8806 91.6446 83.0621 92.1521 82.3636C92.6651 81.6597 93.3526 81.114 94.2148 80.7265C95.0825 80.3336 96.0511 80.1372 97.1206 80.1372C98.2011 80.1372 99.1615 80.3309 100.002 80.7183C100.842 81.1003 101.508 81.6242 101.999 82.2899C102.496 82.9557 102.758 83.7115 102.785 84.5573H100.82ZM120.496 88.7482C120.496 90.5162 120.177 92.0442 119.538 93.332C118.9 94.6198 118.024 95.613 116.911 96.3115C115.798 97.01 114.526 97.3592 113.096 97.3592C111.667 97.3592 110.395 97.01 109.282 96.3115C108.169 95.613 107.293 94.6198 106.655 93.332C106.016 92.0442 105.697 90.5162 105.697 88.7482C105.697 86.9801 106.016 85.4522 106.655 84.1644C107.293 82.8765 108.169 81.8834 109.282 81.1849C110.395 80.4864 111.667 80.1372 113.096 80.1372C114.526 80.1372 115.798 80.4864 116.911 81.1849C118.024 81.8834 118.9 82.8765 119.538 84.1644C120.177 85.4522 120.496 86.9801 120.496 88.7482ZM118.532 88.7482C118.532 87.2966 118.289 86.0716 117.803 85.073C117.323 84.0743 116.671 83.3186 115.847 82.8056C115.028 82.2927 114.111 82.0362 113.096 82.0362C112.081 82.0362 111.162 82.2927 110.338 82.8056C109.519 83.3186 108.867 84.0743 108.382 85.073C107.901 86.0716 107.661 87.2966 107.661 88.7482C107.661 90.1997 107.901 91.4248 108.382 92.4234C108.867 93.422 109.519 94.1778 110.338 94.6908C111.162 95.2037 112.081 95.4602 113.096 95.4602C114.111 95.4602 115.028 95.2037 115.847 94.6908C116.671 94.1778 117.323 93.422 117.803 92.4234C118.289 91.4248 118.532 90.1997 118.532 88.7482ZM123.909 97.13V80.3664H129.574C130.883 80.3664 131.958 80.5901 132.799 81.0376C133.639 81.4796 134.261 82.088 134.665 82.8629C135.069 83.6378 135.271 84.5191 135.271 85.5068C135.271 86.4945 135.069 87.3703 134.665 88.1343C134.261 88.8983 133.642 89.4985 132.807 89.9351C131.972 90.3662 130.905 90.5817 129.606 90.5817H125.023V88.7482H129.541C130.436 88.7482 131.156 88.6172 131.702 88.3553C132.253 88.0934 132.651 87.7223 132.897 87.2421C133.148 86.7564 133.273 86.178 133.273 85.5068C133.273 84.8356 133.148 84.249 132.897 83.7469C132.646 83.2449 132.245 82.8574 131.694 82.5846C131.142 82.3063 130.414 82.1671 129.508 82.1671H125.939V97.13H123.909ZM131.8 89.5995L135.925 97.13H133.568L129.508 89.5995H131.8ZM147.821 84.5573C147.723 83.7278 147.324 83.0839 146.626 82.6255C145.927 82.1671 145.071 81.938 144.056 81.938C143.313 81.938 142.664 82.058 142.107 82.2981C141.556 82.5382 141.125 82.8684 140.814 83.2885C140.509 83.7087 140.356 84.1862 140.356 84.721C140.356 85.1685 140.462 85.5532 140.675 85.8751C140.893 86.1916 141.172 86.4563 141.51 86.6691C141.848 86.8765 142.203 87.0484 142.574 87.1848C142.945 87.3157 143.286 87.4222 143.597 87.504L145.3 87.9624C145.736 88.077 146.222 88.2352 146.757 88.4371C147.297 88.639 147.813 88.9146 148.304 89.2639C148.8 89.6077 149.21 90.0497 149.532 90.5899C149.854 91.1301 150.015 91.7931 150.015 92.5789C150.015 93.4848 149.777 94.3033 149.302 95.0346C148.833 95.7658 148.146 96.3469 147.24 96.778C146.339 97.2091 145.245 97.4247 143.957 97.4247C142.757 97.4247 141.717 97.231 140.839 96.8435C139.966 96.4561 139.278 95.9158 138.776 95.2228C138.279 94.5298 137.998 93.7249 137.933 92.8081H140.028C140.083 93.4411 140.296 93.965 140.667 94.3797C141.043 94.789 141.518 95.0946 142.091 95.2965C142.669 95.4929 143.292 95.5912 143.957 95.5912C144.732 95.5912 145.428 95.4656 146.045 95.2146C146.661 94.9582 147.15 94.6035 147.51 94.1505C147.87 93.6921 148.05 93.1574 148.05 92.5462C148.05 91.9896 147.894 91.5367 147.583 91.1874C147.272 90.8382 146.863 90.5544 146.356 90.3361C145.848 90.1179 145.3 89.9269 144.71 89.7632L142.648 89.1738C141.338 88.7973 140.301 88.2598 139.537 87.5613C138.773 86.8628 138.391 85.9488 138.391 84.8192C138.391 83.8806 138.645 83.0621 139.153 82.3636C139.665 81.6597 140.353 81.114 141.215 80.7265C142.083 80.3336 143.051 80.1372 144.121 80.1372C145.202 80.1372 146.162 80.3309 147.002 80.7183C147.843 81.1003 148.508 81.6242 149 82.2899C149.496 82.9557 149.758 83.7115 149.785 84.5573H147.821Z" fill="#1F3A93"/>
</g>
<defs>
<clipPath id="clip0_53_25">
<rect width="172" height="103.94" fill="white"/>
</clipPath>
</defs>
</svg>
