<svg width="217" height="46" viewBox="0 0 217 46" fill="none" xmlns="http://www.w3.org/2000/svg">
<g clip-path="url(#clip0_59_9)">
<path d="M18.39 7.76V4.58L22.28 2.37V0L0 13V34.25L7.25 38.43V18.3L11.14 16.09V26.45L18.39 22.27V12L22.28 9.79V7.4L1.8 19.31V14L5.47 11.91V15.24L7.28 14.2V10.89L11.16 8.68V12L13 10.89V7.65L16.67 5.57V8.77L18.43 7.77L18.39 7.76ZM16.59 21.26L12.92 23.36V15.08L16.59 13V21.26ZM5.43 19.35V35.35L1.76 33.25V21.45L5.43 19.35Z" fill="#DAA520"/>
<path d="M11.2002 39.44L18.2902 43.53V31.39L11.2002 27.3V39.44ZM13.0002 30.36L16.5902 32.42V40.49L13.0002 38.43V30.36Z" fill="#DAA520"/>
<path d="M22.1003 38.28V41.39L18.3203 43.53V45.82L40.1203 33.14V12.34L33.0003 8.23001V27.93L29.2003 30.09V20L22.1003 24.06V34.17L18.3203 36.31V38.6L38.3203 26.94V32.13L34.7303 34.13V30.91L32.9703 31.91V35.14L29.1903 37.31V34.15L27.4203 35.15V38.33L23.8303 40.33V37.25L22.1003 38.28ZM23.8603 25.07L27.4503 23V31.11L23.8603 33.11V25.07ZM34.7803 26.94V11.29L38.3703 13.35V24.88L34.7803 26.94Z" fill="#DAA520"/>
<path d="M29.5298 6.58001L22.2598 2.37001V14.78L29.5098 19V6.58001H29.5298ZM27.7298 15.85L24.0598 13.75V5.51001L27.7298 7.61001V15.85Z" fill="#DAA520"/>
<path d="M144.228 12.4249C144.082 13.2852 143.827 14.0725 143.463 14.7869C143.113 15.4867 142.668 16.0918 142.129 16.6021C141.604 17.0978 140.992 17.4769 140.292 17.7394C139.606 18.0164 138.848 18.1549 138.017 18.1549C137.07 18.1549 136.187 17.9872 135.371 17.6519C134.569 17.3165 133.869 16.8208 133.271 16.1647C132.688 15.494 132.222 14.663 131.872 13.6715C131.536 12.6801 131.369 11.5356 131.369 10.2379C131.369 8.9549 131.522 7.81037 131.828 6.80435C132.149 5.78375 132.601 4.91624 133.184 4.20182C133.767 3.4874 134.467 2.94065 135.283 2.56157C136.115 2.18249 137.04 1.99295 138.061 1.99295C138.965 1.99295 139.781 2.13875 140.51 2.43035C141.239 2.70737 141.866 3.09374 142.391 3.58946C142.916 4.0706 143.332 4.64651 143.638 5.31719C143.959 5.98787 144.155 6.70229 144.228 7.46045H142.522C142.435 6.87725 142.26 6.34508 141.998 5.86394C141.75 5.36822 141.429 4.9454 141.035 4.59548C140.656 4.24556 140.212 3.97583 139.701 3.78629C139.205 3.58217 138.666 3.48011 138.083 3.48011C136.45 3.48011 135.211 4.06331 134.365 5.22971C133.519 6.38153 133.096 8.02178 133.096 10.1505C133.096 11.2294 133.213 12.1771 133.446 12.9936C133.68 13.7955 134.008 14.4734 134.431 15.0275C134.853 15.5669 135.364 15.9752 135.961 16.2522C136.574 16.5292 137.244 16.6677 137.973 16.6677C139.198 16.6677 140.197 16.3032 140.97 15.5742C141.742 14.8306 142.26 13.7809 142.522 12.4249H144.228ZM156.4 17.63L155.022 13.934H147.805L146.362 17.63H144.568L150.495 2.49596H152.398L158.259 17.63H156.4ZM151.436 4.42052L148.286 12.5124H154.519L151.436 4.42052ZM160.006 17.63V2.49596H166.414C167.114 2.49596 167.741 2.61989 168.295 2.86775C168.863 3.11561 169.345 3.45824 169.738 3.89564C170.147 4.33304 170.453 4.85063 170.657 5.44841C170.876 6.03161 170.985 6.65855 170.985 7.32923C170.985 8.01449 170.876 8.64143 170.657 9.21005C170.453 9.77867 170.147 10.2671 169.738 10.6753C169.345 11.0836 168.863 11.4043 168.295 11.6376C167.741 11.8563 167.114 11.9657 166.414 11.9657H161.712V17.63H160.006ZM166.173 10.5879C166.713 10.5879 167.187 10.5077 167.595 10.3473C168.018 10.1723 168.368 9.93905 168.645 9.64745C168.922 9.35585 169.126 9.01322 169.257 8.61956C169.403 8.21132 169.476 7.76663 169.476 7.28549C169.476 6.80435 169.403 6.35966 169.257 5.95142C169.111 5.54318 168.9 5.19326 168.623 4.90166C168.346 4.59548 167.996 4.35491 167.573 4.17995C167.165 4.00499 166.698 3.91751 166.173 3.91751H161.712V10.5879H166.173ZM173.57 17.63V2.49596H175.298V17.63H173.57ZM182.234 17.63V3.91751H177.204V2.49596H188.905V3.91751H183.918V17.63H182.234ZM199.35 17.63L197.972 13.934H190.755L189.312 17.63H187.518L193.445 2.49596H195.348L201.209 17.63H199.35ZM194.385 4.42052L191.236 12.5124H197.469L194.385 4.42052ZM202.956 17.63V2.49596H204.662V16.1428H213.104V17.63H202.956Z" fill="#DAA520"/>
<path d="M53.4902 4.40001H60.6502C63.6502 4.40001 65.8602 5.92001 65.8602 8.71001C65.8957 9.51475 65.661 10.3082 65.1935 10.9642C64.726 11.6202 64.0525 12.101 63.2802 12.33V12.39C63.885 12.5586 64.4217 12.9128 64.8146 13.4026C65.2075 13.8923 65.4368 14.493 65.4702 15.12C65.7702 17.12 65.5602 18.96 66.1002 19.17V19.35H62.5102C62.1202 19.11 62.1802 17.35 61.9402 15.87C61.9347 15.5604 61.8635 15.2555 61.7315 14.9754C61.5994 14.6953 61.4095 14.4464 61.1742 14.2451C60.9389 14.0438 60.6635 13.8947 60.3664 13.8077C60.0692 13.7206 59.757 13.6975 59.4502 13.74H57.2002V19.35H53.5202V4.40001H53.4902ZM60.0002 11C61.4702 11 62.2202 10.31 62.2202 9.17001C62.2202 8.03001 61.4602 7.30001 60.0502 7.30001H57.1702V11H60.0002Z" fill="#DAA520"/>
<path d="M67.5098 4.40001H78.8298V7.45001H71.1898V10.12H77.7298V13H71.1898V16.2H78.9998V19.35H67.5098V4.40001Z" fill="#DAA520"/>
<path d="M80.6299 4.40001H84.3199V16.2H90.9999V19.35H80.6299V4.40001Z" fill="#DAA520"/>
<path d="M92.4697 4.40001H96.1497V19.4H92.4697V4.40001Z" fill="#DAA520"/>
<path d="M99.6303 17.58C98.2774 16.0109 97.5635 13.9907 97.6303 11.92C97.5745 9.75433 98.3717 7.65342 99.8503 6.07C100.521 5.40311 101.321 4.88139 102.202 4.53731C103.083 4.19323 104.025 4.03416 104.97 4.07C108.8 4.07 111.11 6.07 111.59 9.25H108C107.849 8.60601 107.473 8.03726 106.939 7.64659C106.406 7.25592 105.75 7.06914 105.09 7.12C102.63 7.12 101.4 9.12 101.4 11.89C101.4 14.66 102.81 16.65 105.18 16.65C105.951 16.7155 106.718 16.4806 107.32 15.9942C107.922 15.5078 108.312 14.8077 108.41 14.04H105.63V11.32H111.86V19.32H109.28L109.07 17.52C108.617 18.2219 107.983 18.7891 107.236 19.1621C106.488 19.535 105.654 19.7001 104.82 19.64C103.858 19.6861 102.898 19.5262 102.003 19.1709C101.108 18.8156 100.299 18.2732 99.6303 17.58Z" fill="#DAA520"/>
<path d="M113 11.89C113 7.42001 115.87 4.10001 120.37 4.10001C124.87 4.10001 127.77 7.42001 127.77 11.89C127.77 16.36 124.89 19.67 120.37 19.67C115.85 19.67 113 16.35 113 11.89ZM124 11.89C124 9.16001 122.81 7.09001 120.38 7.09001C117.95 7.09001 116.75 9.19001 116.75 11.89C116.75 14.59 117.98 16.68 120.38 16.68C122.78 16.68 124 14.61 124 11.89Z" fill="#DAA520"/>
<path d="M62.9955 39.72L61.6177 36.024H54.4006L52.9572 39.72H51.1639L57.0906 24.586H58.9933L64.8545 39.72H62.9955ZM58.031 26.5105L54.8818 34.6024H61.1147L58.031 26.5105ZM72.3096 38.3203C73.8551 38.3203 75.0433 37.759 75.8744 36.6363C76.7055 35.5137 77.121 33.9682 77.121 31.9999C77.121 29.9587 76.6763 28.4497 75.7869 27.4728C74.9121 26.4959 73.6364 26.0075 71.9597 26.0075H68.2636V38.3203H72.3096ZM66.6015 39.72V24.586H72.1784C73.1552 24.586 74.0519 24.7609 74.8684 25.1108C75.6849 25.4462 76.3847 25.9346 76.9679 26.5761C77.5657 27.2031 78.0249 27.9758 78.3457 28.8944C78.681 29.8129 78.8487 30.8481 78.8487 31.9999C78.8487 33.1517 78.6956 34.2015 78.3894 35.1492C78.0978 36.0969 77.675 36.9134 77.121 37.5986C76.5815 38.2693 75.9254 38.7942 75.1527 39.1733C74.3945 39.5378 73.5489 39.72 72.6158 39.72H66.6015ZM84.2902 39.72L78.779 24.586H80.5942L85.0994 37.2268L89.6047 24.586H91.3761L85.843 39.72H84.2902ZM93.2149 39.72V24.586H94.9426V39.72H93.2149ZM107.434 29.0474C107.419 26.7146 106.034 25.5482 103.279 25.5482C101.967 25.5482 101.004 25.7961 100.392 26.2918C99.7795 26.773 99.4733 27.4291 99.4733 28.2601C99.4733 28.9016 99.6118 29.4119 99.8889 29.791C100.18 30.1701 100.56 30.469 101.026 30.6877C101.493 30.8918 102.018 31.0449 102.601 31.147C103.199 31.2344 103.804 31.3292 104.416 31.4313C105.043 31.5333 105.648 31.6573 106.231 31.8031C106.829 31.9489 107.361 32.1749 107.828 32.481C108.294 32.7872 108.666 33.2027 108.943 33.7276C109.235 34.2525 109.38 34.9378 109.38 35.7834C109.38 36.4832 109.235 37.1102 108.943 37.6642C108.666 38.2183 108.28 38.6848 107.784 39.0639C107.303 39.443 106.727 39.7346 106.056 39.9387C105.4 40.1428 104.693 40.2449 103.935 40.2449C101.821 40.2449 100.239 39.8294 99.189 38.9983C98.1538 38.1527 97.5998 36.8842 97.5269 35.1929H99.189C99.2182 36.4322 99.6191 37.3508 100.392 37.9485C101.179 38.5463 102.295 38.8452 103.738 38.8452C104.963 38.8452 105.932 38.5755 106.647 38.036C107.376 37.482 107.74 36.7238 107.74 35.7615C107.74 34.8576 107.492 34.2015 106.997 33.7932C106.501 33.3704 105.75 33.0861 104.744 32.9403C103.578 32.7799 102.564 32.6123 101.704 32.4373C100.844 32.2478 100.129 31.9853 99.5608 31.65C99.0068 31.3146 98.5912 30.8845 98.3142 30.3596C98.0518 29.8202 97.9206 29.1203 97.9206 28.2601C97.9206 27.6915 98.0299 27.152 98.2486 26.6417C98.4673 26.1314 98.7954 25.6868 99.2328 25.3077C99.6847 24.9286 100.246 24.6297 100.917 24.411C101.587 24.1923 102.375 24.0829 103.279 24.0829C105.13 24.0829 106.552 24.5131 107.543 25.3733C108.549 26.2335 109.052 27.4582 109.052 29.0474H107.434ZM117.872 38.7796C119.461 38.7796 120.723 38.2474 121.656 37.1831C122.589 36.1187 123.055 34.5077 123.055 32.3498C123.055 30.1337 122.618 28.457 121.743 27.3197C120.883 26.1825 119.593 25.6138 117.872 25.6138C116.152 25.6138 114.847 26.1825 113.957 27.3197C113.083 28.457 112.645 30.1264 112.645 32.3279C112.645 34.5149 113.083 36.1406 113.957 37.205C114.847 38.2547 116.152 38.7796 117.872 38.7796ZM117.872 40.2449C115.612 40.2449 113.892 39.5742 112.711 38.2328C111.53 36.8915 110.939 34.9086 110.939 32.2842C110.939 31.0012 111.092 29.8566 111.399 28.8506C111.705 27.83 112.149 26.9698 112.733 26.27C113.33 25.5555 114.059 25.0161 114.92 24.6516C115.78 24.2725 116.764 24.0829 117.872 24.0829C118.98 24.0829 119.957 24.2725 120.803 24.6516C121.663 25.0161 122.385 25.5555 122.968 26.27C123.551 26.9844 123.988 27.8519 124.28 28.8725C124.586 29.8931 124.739 31.0522 124.739 32.3498C124.739 35.018 124.163 37.0008 123.012 38.2985C121.86 39.5961 120.147 40.2449 117.872 40.2449ZM136.923 39.72V35.7834C136.923 35.3606 136.872 34.9888 136.77 34.668C136.683 34.3327 136.522 34.0557 136.289 33.837C136.056 33.6183 135.735 33.4579 135.327 33.3558C134.918 33.2392 134.401 33.1809 133.774 33.1809H128.919V39.72H127.257V24.586H134.539C135.21 24.586 135.815 24.688 136.355 24.8921C136.909 25.0817 137.375 25.3587 137.754 25.7232C138.148 26.0877 138.447 26.5251 138.651 27.0354C138.855 27.5457 138.957 28.107 138.957 28.7194C138.957 29.6525 138.695 30.469 138.17 31.1688C137.659 31.8541 136.923 32.2842 135.961 32.4592C136.923 32.5904 137.601 32.9039 137.995 33.3996C138.388 33.8807 138.585 34.6024 138.585 35.5647V39.72H136.923ZM134.08 31.7812C134.663 31.7812 135.159 31.701 135.567 31.5406C135.99 31.3802 136.333 31.1688 136.595 30.9064C136.858 30.644 137.047 30.3378 137.164 29.9879C137.295 29.6379 137.361 29.2661 137.361 28.8725C137.361 27.9831 137.105 27.2833 136.595 26.773C136.085 26.2627 135.305 26.0075 134.255 26.0075H128.919V31.7812H134.08ZM150.768 29.0474C150.754 26.7146 149.369 25.5482 146.613 25.5482C145.301 25.5482 144.338 25.7961 143.726 26.2918C143.114 26.773 142.808 27.4291 142.808 28.2601C142.808 28.9016 142.946 29.4119 143.223 29.791C143.515 30.1701 143.894 30.469 144.36 30.6877C144.827 30.8918 145.352 31.0449 145.935 31.147C146.533 31.2344 147.138 31.3292 147.75 31.4313C148.377 31.5333 148.982 31.6573 149.565 31.8031C150.163 31.9489 150.695 32.1749 151.162 32.481C151.628 32.7872 152 33.2027 152.277 33.7276C152.569 34.2525 152.715 34.9378 152.715 35.7834C152.715 36.4832 152.569 37.1102 152.277 37.6642C152 38.2183 151.614 38.6848 151.118 39.0639C150.637 39.443 150.061 39.7346 149.39 39.9387C148.734 40.1428 148.027 40.2449 147.269 40.2449C145.155 40.2449 143.573 39.8294 142.523 38.9983C141.488 38.1527 140.934 36.8842 140.861 35.1929H142.523C142.552 36.4322 142.953 37.3508 143.726 37.9485C144.513 38.5463 145.629 38.8452 147.072 38.8452C148.297 38.8452 149.266 38.5755 149.981 38.036C150.71 37.482 151.074 36.7238 151.074 35.7615C151.074 34.8576 150.827 34.2015 150.331 33.7932C149.835 33.3704 149.084 33.0861 148.078 32.9403C146.912 32.7799 145.898 32.6123 145.038 32.4373C144.178 32.2478 143.464 31.9853 142.895 31.65C142.341 31.3146 141.925 30.8845 141.648 30.3596C141.386 29.8202 141.255 29.1203 141.255 28.2601C141.255 27.6915 141.364 27.152 141.583 26.6417C141.802 26.1314 142.13 25.6868 142.567 25.3077C143.019 24.9286 143.58 24.6297 144.251 24.411C144.922 24.1923 145.709 24.0829 146.613 24.0829C148.465 24.0829 149.886 24.5131 150.878 25.3733C151.884 26.2335 152.387 27.4582 152.387 29.0474H150.768Z" fill="#DAA520"/>
</g>
<defs>
<clipPath id="clip0_59_9">
<rect width="216.71" height="45.91" fill="white"/>
</clipPath>
</defs>
</svg>
