<svg width="217" height="49" viewBox="0 0 217 49" fill="none" xmlns="http://www.w3.org/2000/svg">
<path d="M19.3261 8.11708V4.78021L23.4067 2.45852V0L0 13.6212V35.9442L7.62273 40.3427V19.2003L11.6967 16.8676V27.7588L19.3195 23.3625V12.5155L23.4001 10.1938V7.73529L1.89354 20.2508V14.6805L5.75126 12.4934V15.9892L7.6448 14.8857V11.4098L11.7254 9.08813V12.5155L13.6212 11.412V8.00453L17.4767 5.81746V9.17862L19.3261 8.11708ZM17.4347 22.3032L13.577 24.5102V15.8082L17.4347 13.6212V22.3032ZM5.70491 20.3037V37.1051L1.84941 34.8982V22.5107L5.70491 20.3037Z" fill="#A08864"/>
<path d="M11.7632 41.402L19.2226 45.7056V32.9495L11.7632 28.646V41.402ZM13.617 31.8681L17.3909 34.0309V42.5055L13.617 40.3427V31.8681Z" fill="#A08864"/>
<path d="M23.2171 40.1881V43.4543L19.2446 45.7054V48.111L42.1525 34.7811V12.9325L34.6931 8.60693V29.3079L30.6986 31.5811V20.9216L23.2171 25.2472V35.8625L19.2446 38.1136V40.5191L40.2987 28.2707V33.7218L36.5249 35.8625V32.4418L34.6711 33.5232V36.9218L30.6986 39.195V35.8404L28.8448 36.9218V40.2543L25.0709 42.395V39.1067L23.2171 40.1881ZM25.0709 26.3065L28.8448 24.1437V32.6625L25.0709 34.8032V26.3065ZM36.547 28.2707V11.829L40.3208 13.9918V26.1079L36.547 28.2707Z" fill="#A08864"/>
<path d="M31.0295 6.87677L23.3936 2.4585V15.4926L31.0075 19.8888V6.86794L31.0295 6.87677ZM29.1316 16.6204L25.2739 14.4134V5.75123L29.1316 7.95816V16.6204Z" fill="#A08864"/>
<path d="M207.862 21.4117V6.83813H209.378V20.0529H217V21.4117H207.862Z" fill="#A08864"/>
<path d="M193.093 21.4117L198.273 6.83813H200.144L205.343 21.4117H203.728L202.409 17.6502H196.028L194.708 21.4117H193.093ZM196.5 16.2716H201.936L199.218 8.59091L196.5 16.2716Z" fill="#A08864"/>
<path d="M186.703 21.4117V8.19703H181.976V6.83813H192.946V8.19703H188.219V21.4117H186.703Z" fill="#A08864"/>
<path d="M177.956 21.4117V6.83813H179.472V21.4117H177.956Z" fill="#A08864"/>
<path d="M165.531 21.4117V6.83813H170.612C171.689 6.83813 172.588 7.0679 173.31 7.52743C174.033 7.97383 174.571 8.55152 174.925 9.2605C175.293 9.96949 175.477 10.7047 175.477 11.4662C175.477 12.254 175.293 13.0024 174.925 13.7114C174.571 14.4203 174.033 15.0046 173.31 15.4641C172.588 15.9105 171.689 16.1337 170.612 16.1337H167.048V21.4117H165.531ZM170.612 8.19703H167.048V14.7748H170.612C171.361 14.7748 171.984 14.6173 172.483 14.3022C172.982 13.9871 173.356 13.5801 173.606 13.0812C173.855 12.5691 173.98 12.0374 173.98 11.4859C173.98 10.9345 173.855 10.4093 173.606 9.91041C173.356 9.39836 172.982 8.98479 172.483 8.66968C171.984 8.35458 171.361 8.19703 170.612 8.19703Z" fill="#A08864"/>
<path d="M150.762 21.4117L155.942 6.83813H157.813L163.012 21.4117H161.397L160.078 17.6502H153.697L152.377 21.4117H150.762ZM154.169 16.2716H159.605L156.887 8.59091L154.169 16.2716Z" fill="#A08864"/>
<path d="M143.407 21.6086C142.278 21.6086 141.287 21.3985 140.433 20.9784C139.58 20.5451 138.871 19.974 138.306 19.265C137.742 18.5429 137.315 17.742 137.026 16.8623C136.751 15.9695 136.613 15.057 136.613 14.1249C136.613 13.1927 136.751 12.2802 137.026 11.3874C137.315 10.4946 137.742 9.69369 138.306 8.98471C138.871 8.26259 139.58 7.69146 140.433 7.27132C141.287 6.85118 142.278 6.64111 143.407 6.64111C144.326 6.64111 145.114 6.75928 145.771 6.99561C146.44 7.23194 146.998 7.54048 147.445 7.92123C147.891 8.30198 148.252 8.70243 148.528 9.12257C148.803 9.54271 149.007 9.94315 149.138 10.3239C149.283 10.7047 149.375 11.0132 149.414 11.2495C149.466 11.4859 149.493 11.604 149.493 11.604H147.957C147.957 11.604 147.93 11.4859 147.878 11.2495C147.825 11.0132 147.714 10.7178 147.543 10.3633C147.372 10.0088 147.116 9.65431 146.775 9.29981C146.447 8.94532 146.007 8.64991 145.455 8.41358C144.917 8.17725 144.234 8.05909 143.407 8.05909C142.541 8.05909 141.779 8.22977 141.123 8.57113C140.466 8.9125 139.915 9.37859 139.468 9.96941C139.035 10.5471 138.707 11.197 138.484 11.9191C138.261 12.6281 138.149 13.3634 138.149 14.1249C138.149 14.8732 138.261 15.6085 138.484 16.3306C138.707 17.0527 139.035 17.7092 139.468 18.3C139.915 18.8777 140.466 19.3372 141.123 19.6786C141.779 20.02 142.541 20.1906 143.407 20.1906C144.234 20.1906 144.917 20.0725 145.455 19.8361C146.007 19.5998 146.447 19.3044 146.775 18.9499C147.116 18.5954 147.372 18.2409 147.543 17.8864C147.714 17.5319 147.825 17.2365 147.878 17.0002C147.93 16.7507 147.957 16.626 147.957 16.626H149.493C149.493 16.626 149.466 16.7507 149.414 17.0002C149.375 17.2365 149.283 17.5451 149.138 17.9258C149.007 18.2934 148.803 18.6939 148.528 19.1272C148.252 19.5473 147.891 19.9477 147.445 20.3285C146.998 20.7092 146.44 21.0178 145.771 21.2541C145.114 21.4904 144.326 21.6086 143.407 21.6086Z" fill="#A08864"/>
<path d="M58.2656 6.48901H65.3973C68.3514 6.48901 70.5893 8.01083 70.5893 10.7859C70.5893 12.5166 69.724 13.7699 68.0231 14.3965V14.4562C69.3062 14.9038 69.9925 15.7094 70.2014 17.1716C70.4998 19.141 70.2909 20.991 70.8281 21.1999V21.367H67.2473C66.8594 21.1283 66.9191 19.3976 66.6804 17.9056C66.5013 16.533 65.7852 15.787 64.2037 15.787H61.9598V21.367H58.2895V6.48901H58.2656ZM64.711 13.0537C66.1731 13.0537 66.9191 12.3674 66.9191 11.2335C66.9191 10.1593 66.2029 9.38344 64.8005 9.38344H61.9359V13.0537H64.711Z" fill="#A08864"/>
<path d="M72.2305 6.48901H83.5098V9.53264H75.9007V12.1884H82.4057V15.0529H75.9007V18.2458H83.6292V21.367H72.2305V6.48901Z" fill="#A08864"/>
<path d="M85.3003 6.48901H88.9705V18.2458H95.6546V21.367H85.3003V6.48901Z" fill="#A08864"/>
<path d="M97.087 6.48901H100.751V21.367H97.0811L97.087 6.48901Z" fill="#A08864"/>
<path d="M104.218 19.6184C102.935 18.216 102.219 16.2466 102.219 13.9788C102.219 11.6513 103.025 9.59238 104.427 8.16008C105.651 6.90682 107.381 6.19067 109.53 6.19067C113.349 6.19067 115.647 8.21976 116.124 11.3529H112.544C112.275 10.1593 111.261 9.2343 109.649 9.2343C107.202 9.2343 105.979 11.2634 105.979 13.9788C105.979 16.6942 107.381 18.7233 109.739 18.7233C111.678 18.7233 112.812 17.4402 112.961 16.1272V16.0974H110.186V13.382H116.393V21.367H113.827L113.618 19.5767H113.582C112.597 21.0985 111.135 21.6953 109.345 21.6953C107.173 21.7072 105.442 20.9314 104.218 19.6184Z" fill="#A08864"/>
<path d="M117.527 13.9489C117.527 9.50286 120.391 6.19067 124.867 6.19067C129.343 6.19067 132.238 9.50286 132.238 13.9489C132.238 18.395 129.373 21.7072 124.867 21.7072C120.362 21.7072 117.527 18.3831 117.527 13.9489ZM128.508 13.9489C128.508 11.2335 127.314 9.17462 124.897 9.17462C122.48 9.17462 121.287 11.2634 121.287 13.9489C121.287 16.6345 122.51 18.7233 124.897 18.7233C127.284 18.7233 128.502 16.6643 128.502 13.9489H128.508Z" fill="#A08864"/>
<path d="M150.209 41.5175C149.356 41.5175 148.627 41.4125 148.023 41.2024C147.433 40.9792 146.94 40.697 146.546 40.3556C146.166 40.0142 145.857 39.6532 145.621 39.2724C145.398 38.8917 145.233 38.5306 145.128 38.1892C145.023 37.8479 144.958 37.5722 144.931 37.3621C144.905 37.1389 144.892 37.0273 144.892 37.0273H146.428C146.428 37.0273 146.441 37.1323 146.468 37.3424C146.507 37.5525 146.586 37.8151 146.704 38.1302C146.835 38.4321 147.039 38.7407 147.314 39.0558C147.59 39.3578 147.964 39.6138 148.437 39.8239C148.91 40.0208 149.514 40.1193 150.249 40.1193C151.247 40.1193 152.054 39.8632 152.671 39.3512C153.288 38.8391 153.597 38.1761 153.597 37.3621C153.597 36.6006 153.347 36.0229 152.848 35.629C152.363 35.2351 151.719 34.9397 150.918 34.7428L149.048 34.2898C148.339 34.106 147.702 33.8631 147.137 33.5611C146.573 33.246 146.126 32.8456 145.798 32.3598C145.47 31.8609 145.306 31.2504 145.306 30.5283C145.306 29.7011 145.509 28.9921 145.916 28.4013C146.323 27.8105 146.875 27.3575 147.57 27.0424C148.266 26.7142 149.061 26.55 149.953 26.55C150.846 26.55 151.582 26.6879 152.159 26.9636C152.737 27.2393 153.196 27.5807 153.538 27.9877C153.879 28.3816 154.129 28.782 154.286 29.1891C154.457 29.5961 154.562 29.9374 154.601 30.2131C154.654 30.4889 154.68 30.6267 154.68 30.6267H153.183C153.183 30.6267 153.17 30.5348 153.144 30.351C153.118 30.1672 153.045 29.944 152.927 29.6814C152.822 29.4057 152.652 29.1365 152.415 28.8739C152.179 28.5982 151.857 28.3685 151.45 28.1847C151.043 28.0008 150.531 27.9089 149.914 27.9089C148.89 27.9089 148.115 28.165 147.59 28.677C147.065 29.1759 146.802 29.7602 146.802 30.4298C146.802 31.0469 147.012 31.5392 147.433 31.9068C147.866 32.2745 148.463 32.5502 149.225 32.734L151.214 33.2263C151.962 33.4101 152.625 33.6727 153.203 34.0141C153.794 34.3555 154.26 34.7953 154.601 35.3336C154.943 35.8719 155.113 36.5218 155.113 37.2833C155.113 38.0448 154.916 38.7472 154.522 39.3906C154.142 40.0339 153.584 40.5525 152.848 40.9464C152.126 41.3272 151.247 41.5175 150.209 41.5175Z" fill="#A08864"/>
<path d="M132.75 41.3207V26.7471H137.674C138.672 26.7471 139.506 26.9506 140.175 27.3576C140.845 27.7515 141.344 28.2635 141.672 28.8937C142 29.5108 142.164 30.1673 142.164 30.8631C142.164 31.454 142.04 32.0251 141.79 32.5765C141.554 33.1279 141.193 33.6072 140.707 34.0142C140.221 34.4212 139.611 34.7035 138.875 34.861L142.657 41.3207H140.943L137.26 34.9792H134.267V41.3207H132.75ZM137.654 28.106H134.267V33.6597H137.654C138.324 33.6597 138.875 33.5284 139.309 33.2658C139.742 32.9901 140.07 32.6422 140.293 32.222C140.517 31.7888 140.628 31.3424 140.628 30.8828C140.628 30.4233 140.517 29.9835 140.293 29.5633C140.07 29.1301 139.742 28.7821 139.309 28.5195C138.875 28.2438 138.324 28.106 137.654 28.106Z" fill="#A08864"/>
<path d="M123.036 41.5175C121.893 41.5175 120.882 41.3075 120.003 40.8873C119.136 40.4541 118.408 39.8829 117.817 39.1739C117.239 38.4518 116.799 37.6444 116.497 36.7516C116.208 35.8588 116.064 34.9463 116.064 34.0141C116.064 33.095 116.208 32.1891 116.497 31.2963C116.799 30.4035 117.239 29.6026 117.817 28.8936C118.408 28.1715 119.136 27.6004 120.003 27.1803C120.882 26.7601 121.893 26.55 123.036 26.55C124.178 26.55 125.182 26.7601 126.049 27.1803C126.915 27.6004 127.638 28.1715 128.215 28.8936C128.806 29.6026 129.252 30.4035 129.554 31.2963C129.856 32.1891 130.007 33.095 130.007 34.0141C130.007 34.9463 129.856 35.8588 129.554 36.7516C129.252 37.6444 128.806 38.4518 128.215 39.1739C127.638 39.8829 126.915 40.4541 126.049 40.8873C125.182 41.3075 124.178 41.5175 123.036 41.5175ZM123.036 40.0996C124.099 40.0996 125.038 39.837 125.852 39.3118C126.666 38.7735 127.303 38.0448 127.762 37.1258C128.222 36.2067 128.452 35.1695 128.452 34.0141C128.452 32.8718 128.222 31.8478 127.762 30.9418C127.303 30.0228 126.666 29.3007 125.852 28.7755C125.038 28.2372 124.099 27.968 123.036 27.968C121.959 27.968 121.014 28.2372 120.2 28.7755C119.386 29.3007 118.749 30.0228 118.289 30.9418C117.83 31.8478 117.6 32.8718 117.6 34.0141C117.6 35.1695 117.83 36.2067 118.289 37.1258C118.749 38.0448 119.386 38.7735 120.2 39.3118C121.014 39.837 121.959 40.0996 123.036 40.0996Z" fill="#A08864"/>
<path d="M108.725 41.5175C107.872 41.5175 107.143 41.4125 106.539 41.2024C105.948 40.9792 105.456 40.697 105.062 40.3556C104.681 40.0142 104.373 39.6532 104.136 39.2724C103.913 38.8917 103.749 38.5306 103.644 38.1892C103.539 37.8479 103.473 37.5722 103.447 37.3621C103.421 37.1389 103.408 37.0273 103.408 37.0273H104.944C104.944 37.0273 104.957 37.1323 104.983 37.3424C105.023 37.5525 105.101 37.8151 105.22 38.1302C105.351 38.4321 105.554 38.7407 105.83 39.0558C106.106 39.3578 106.48 39.6138 106.953 39.8239C107.425 40.0208 108.029 40.1193 108.765 40.1193C109.762 40.1193 110.57 39.8632 111.187 39.3512C111.804 38.8391 112.112 38.1761 112.112 37.3621C112.112 36.6006 111.863 36.0229 111.364 35.629C110.878 35.2351 110.235 34.9397 109.434 34.7428L107.563 34.2898C106.854 34.106 106.217 33.8631 105.653 33.5611C105.088 33.246 104.642 32.8456 104.314 32.3598C103.985 31.8609 103.821 31.2504 103.821 30.5283C103.821 29.7011 104.025 28.9921 104.432 28.4013C104.839 27.8105 105.39 27.3575 106.086 27.0424C106.782 26.7142 107.576 26.55 108.469 26.55C109.362 26.55 110.097 26.6879 110.675 26.9636C111.253 27.2393 111.712 27.5807 112.053 27.9877C112.395 28.3816 112.644 28.782 112.802 29.1891C112.972 29.5961 113.078 29.9374 113.117 30.2131C113.169 30.4889 113.196 30.6267 113.196 30.6267H111.699C111.699 30.6267 111.686 30.5348 111.66 30.351C111.633 30.1672 111.561 29.944 111.443 29.6814C111.338 29.4057 111.167 29.1365 110.931 28.8739C110.695 28.5982 110.373 28.3685 109.966 28.1847C109.559 28.0008 109.047 27.9089 108.43 27.9089C107.406 27.9089 106.631 28.165 106.106 28.677C105.581 29.1759 105.318 29.7602 105.318 30.4298C105.318 31.0469 105.528 31.5392 105.948 31.9068C106.382 32.2745 106.979 32.5502 107.74 32.734L109.73 33.2263C110.478 33.4101 111.141 33.6727 111.719 34.0141C112.309 34.3555 112.776 34.7953 113.117 35.3336C113.458 35.8719 113.629 36.5218 113.629 37.2833C113.629 38.0448 113.432 38.7472 113.038 39.3906C112.657 40.0339 112.099 40.5525 111.364 40.9464C110.642 41.3272 109.762 41.5175 108.725 41.5175Z" fill="#A08864"/>
<path d="M99.1709 41.3207V26.7471H100.687V41.3207H99.1709Z" fill="#A08864"/>
<path d="M89.7508 41.3207L84.5713 26.7471H86.1665L90.6961 39.5679L95.2061 26.7471H96.821L91.6218 41.3207H89.7508Z" fill="#A08864"/>
<path d="M71.5337 41.3207V26.7471H76.083C77.2384 26.7471 78.2494 26.9571 79.1159 27.3773C79.9824 27.7843 80.698 28.3357 81.2626 29.0316C81.8403 29.7274 82.2735 30.5086 82.5624 31.3752C82.8512 32.2417 82.9956 33.1279 82.9956 34.0339C82.9956 34.9398 82.8512 35.826 82.5624 36.6926C82.2735 37.5591 81.8403 38.3403 81.2626 39.0362C80.698 39.732 79.9824 40.29 79.1159 40.7102C78.2494 41.1172 77.2384 41.3207 76.083 41.3207H71.5337ZM76.0436 28.106H73.0501V39.9618H76.0436C76.9496 39.9618 77.7373 39.7977 78.4069 39.4694C79.0896 39.1281 79.6542 38.6751 80.1006 38.1105C80.5601 37.546 80.9015 36.9092 81.1247 36.2002C81.3479 35.4912 81.4595 34.7691 81.4595 34.0339C81.4595 33.2986 81.3479 32.5765 81.1247 31.8675C80.9015 31.1585 80.5601 30.5218 80.1006 29.9572C79.6542 29.3926 79.0896 28.9462 78.4069 28.618C77.7373 28.2766 76.9496 28.106 76.0436 28.106Z" fill="#A08864"/>
<path d="M56.7646 41.3207L61.9442 26.7471H63.8151L69.0144 41.3207H67.3994L66.0799 37.5591H59.6991L58.3796 41.3207H56.7646ZM60.1717 36.1805H65.6073L62.8895 28.4998L60.1717 36.1805Z" fill="#A08864"/>
</svg>
